<?xml version="1.0" encoding="utf-8"?>
<!-- Generator: Adobe Illustrator 25.3.1, SVG Export Plug-In . SVG Version: 6.00 Build 0)  -->
<svg version="1.1" xmlns="http://www.w3.org/2000/svg" xmlns:xlink="http://www.w3.org/1999/xlink" x="0px" y="0px"
	 viewBox="0 0 20 20" style="enable-background:new 0 0 20 20;" xml:space="preserve">
<g id="레이어_2">
	<g>
		<g>
			<path d="M1,3.83c5.26,0,10.51,0,15.77,0c0.74,0,1.49,0,2.23,0c0.97,0,0.97-1.5,0-1.5c-5.26,0-10.51,0-15.77,0
				c-0.74,0-1.49,0-2.23,0C0.04,2.33,0.03,3.83,1,3.83L1,3.83z"/>
		</g>
	</g>
	<g>
		<g>
			<path d="M1,10.75c5.26,0,10.51,0,15.77,0c0.74,0,1.49,0,2.23,0c0.97,0,0.97-1.5,0-1.5c-5.26,0-10.51,0-15.77,0
				c-0.74,0-1.49,0-2.23,0C0.04,9.25,0.03,10.75,1,10.75L1,10.75z"/>
		</g>
	</g>
	<g>
		<g>
			<path d="M1,17.67c5.26,0,10.51,0,15.77,0c0.74,0,1.49,0,2.23,0c0.97,0,0.97-1.5,0-1.5c-5.26,0-10.51,0-15.77,0
				c-0.74,0-1.49,0-2.23,0C0.04,16.17,0.03,17.67,1,17.67L1,17.67z"/>
		</g>
	</g>
</g>
<g id="레이어_4">
</g>
<g id="레이어_3">
</g>
</svg>
