<svg xmlns="http://www.w3.org/2000/svg" width="241" height="28.742">
    <g data-name="그룹 9">
        <path data-name="패스 1" d="M13.181 1.126a13.126 13.126 0 0 1 5.108 1 12.9 12.9 0 0 1 4.234 2.856 13.718 13.718 0 0 1 2.9 4.381 14.192 14.192 0 0 1 1.063 5.569 13.464 13.464 0 0 1-1.063 5.36 14.326 14.326 0 0 1-2.9 4.378 13.341 13.341 0 0 1-4.234 2.961 12.453 12.453 0 0 1-5.108 1.063 13.02 13.02 0 0 1-5.069-1 12.659 12.659 0 0 1-4.213-2.857 13.679 13.679 0 0 1-2.856-4.381 14.339 14.339 0 0 1-1.042-5.524 13.878 13.878 0 0 1 1.042-5.384 14.271 14.271 0 0 1 2.856-4.4 13.136 13.136 0 0 1 4.213-2.961 12.356 12.356 0 0 1 5.069-1.061zm-.584 1.377a7.214 7.214 0 0 0-3.922 1.024 8.145 8.145 0 0 0-2.647 2.689 12.54 12.54 0 0 0-1.5 3.713 17.66 17.66 0 0 0 .168 8.821 15.337 15.337 0 0 0 1.9 4.3 10.23 10.23 0 0 0 3.066 3.108 7.571 7.571 0 0 0 4.192 1.168 7.235 7.235 0 0 0 3.919-1.021 8.275 8.275 0 0 0 2.671-2.734 12.727 12.727 0 0 0 1.521-3.776 18.055 18.055 0 0 0 .479-4.108 17.606 17.606 0 0 0-.647-4.713 14.789 14.789 0 0 0-1.916-4.255 10.3 10.3 0 0 0-3.087-3.063 7.665 7.665 0 0 0-4.197-1.153z"/>
        <path data-name="패스 2" d="M38.248 10.513a3.635 3.635 0 0 1 2.189.752 5.443 5.443 0 0 1 1.647 2 6.277 6.277 0 0 1 .626 2.836v8.387a2.868 2.868 0 0 0 .293 1.353.994.994 0 0 0 .958.563 1.523 1.523 0 0 0 .919-.248 3.85 3.85 0 0 1 .416-.293c.057 0 .1.042.126.126a.716.716 0 0 1 .042.21 1.486 1.486 0 0 1-.21.794c-.168.138-.437.332-.814.581a9.041 9.041 0 0 1-1.168.668 2.519 2.519 0 0 1-1.063.293 1.974 1.974 0 0 1-1.563-.877 4.48 4.48 0 0 1-.9-1.793 8.871 8.871 0 0 1-.77.626 16.136 16.136 0 0 1-1.4.94 15.64 15.64 0 0 1-1.566.832 3.263 3.263 0 0 1-1.314.356 4.621 4.621 0 0 1-3.374-1.356 4.47 4.47 0 0 1-1.377-3.315 3.416 3.416 0 0 1 .689-2.15 3.321 3.321 0 0 1 1.353-1.147q1.168-.418 2.608-.9t2.689-.94q1.253-.458 1.835-.71a.7.7 0 0 0 .419-.311 2.154 2.154 0 0 0 .081-.73v-1.084a3.957 3.957 0 0 0-.458-1.814 4.38 4.38 0 0 0-1.252-1.5 2.889 2.889 0 0 0-1.794-.6 1.806 1.806 0 0 0-1.542.668 4.4 4.4 0 0 0-.71 1.877q-.373 1.963-1.919 1.961a1.146 1.146 0 0 1-1.021-.542 2.1 2.1 0 0 1-.353-1.168 2.632 2.632 0 0 1 .081-.479 1.488 1.488 0 0 1 .21-.524 15.748 15.748 0 0 1 1.794-1.377 13.606 13.606 0 0 1 2.65-1.374 7.949 7.949 0 0 1 2.943-.591zm-2.169 15.89a4.207 4.207 0 0 0 1.545-.332 7.247 7.247 0 0 0 1.416-.731c.392-.264.584-.464.584-.6v-5.545l-2 .626q-1.208.373-1.794.581a4.563 4.563 0 0 0-1.794 1.21 2.964 2.964 0 0 0 .084 3.943 2.562 2.562 0 0 0 1.959.848z"/>
        <path data-name="패스 3" d="M57.267 10.432a10.109 10.109 0 0 1 1.584.147 6.042 6.042 0 0 1 1.21.272c.141 0 .21-.278.21-.835V5.552c0-.305-.006-.674-.021-1.1a2.819 2.819 0 0 0-.189-1.021q-.166-.458-.916-.584a9.613 9.613 0 0 0-1.587-.126q-.04 0-.063-.521c-.012-.347.024-.536.1-.563a17.189 17.189 0 0 0 3.024-.6A21.413 21.413 0 0 0 63.392.013c.114 0 .216.078.314.23a.811.811 0 0 1 .147.44 14.612 14.612 0 0 0-.461 3.545V21.66c0 .781.021 1.566.063 2.359a6.667 6.667 0 0 0 .231 1.647 1.137 1.137 0 0 0 .979.563c.515.069.91.117 1.189.147h.21c.057.027.09.1.1.228a2.489 2.489 0 0 1 .021.273 2.673 2.673 0 0 1-.063.311c-.042.183-.12.27-.231.27a12.16 12.16 0 0 0-2.273.335c-.82.195-1.521.383-2.108.563s-.889.272-.916.272c-.111 0-.195-.1-.249-.293a1.792 1.792 0 0 1-.084-.5v-1.419c0-.248-.042-.332-.126-.248a5.993 5.993 0 0 1-1.231.916 14.837 14.837 0 0 1-2.066 1.063 5.418 5.418 0 0 1-2.126.482 6 6 0 0 1-3.482-1.147 8.463 8.463 0 0 1-2.671-3.129 9.569 9.569 0 0 1-1.021-4.444 7.443 7.443 0 0 1 .982-3.734 10.821 10.821 0 0 1 2.5-3 13.316 13.316 0 0 1 3.192-2 7.646 7.646 0 0 1 3.055-.743zm-1.335 1.71a3.859 3.859 0 0 0-2.647.982 6.424 6.424 0 0 0-1.713 2.524 8.8 8.8 0 0 0-.6 3.252 9.283 9.283 0 0 0 .665 3.545 6.263 6.263 0 0 0 1.961 2.629 4.954 4.954 0 0 0 3.129 1 5.25 5.25 0 0 0 2.461-.563c.722-.374 1.084-.731 1.084-1.063v-10.3q0-.71-1.314-1.356a6.757 6.757 0 0 0-3.026-.653z"/>
        <path data-name="패스 4" d="M94.809 1.126q2 0 4.192.171a31.607 31.607 0 0 1 4.44.665c.195 1.141.35 2.093.461 2.856s.216 1.461.311 2.087.147.994.147 1.1c.027.111-.057.222-.249.335a1.254 1.254 0 0 1-.626.165.957.957 0 0 1-.5-.123 11.51 11.51 0 0 0-.4-1.419 6.739 6.739 0 0 0-1.126-2 6.4 6.4 0 0 0-2.356-1.772 9.677 9.677 0 0 0-4.087-.731 8.254 8.254 0 0 0-4.09 1.024 10.109 10.109 0 0 0-3.147 2.752 12.932 12.932 0 0 0-2 3.839 13.576 13.576 0 0 0-.689 4.234 17.14 17.14 0 0 0 .647 4.671 13.379 13.379 0 0 0 1.961 4.15 9.883 9.883 0 0 0 3.294 2.961 9.4 9.4 0 0 0 4.65 1.1 7.844 7.844 0 0 0 3.192-.584 8.079 8.079 0 0 0 2.189-1.377 6.548 6.548 0 0 0 1.755-2.416 14.023 14.023 0 0 0 .749-2.339 1.8 1.8 0 0 1 1.294.335 9.088 9.088 0 0 1-.144 1.168q-.148.876-.356 1.9a18.56 18.56 0 0 1-.458 1.814 2.833 2.833 0 0 1-.458 1 13.992 13.992 0 0 1-3.8 1.374 23.584 23.584 0 0 1-4.964.461 13.917 13.917 0 0 1-5.5-1.063 13.135 13.135 0 0 1-7.114-7.174 13.392 13.392 0 0 1-.979-5.111 14.282 14.282 0 0 1 1.021-5.4 14.521 14.521 0 0 1 2.856-4.482 13.084 13.084 0 0 1 4.36-3.066 13.63 13.63 0 0 1 5.524-1.105z"/>
        <path data-name="패스 5" d="M116.871 10.387a8.883 8.883 0 0 1 4.65 1.168 8.031 8.031 0 0 1 3 3.171 9.535 9.535 0 0 1 1.063 4.545 9.883 9.883 0 0 1-1.126 4.737 8.721 8.721 0 0 1-3.087 3.336 8.132 8.132 0 0 1-4.419 1.231 8.86 8.86 0 0 1-4.653-1.189 8.071 8.071 0 0 1-3.042-3.213 10.272 10.272 0 0 1 .084-9.279 8.75 8.75 0 0 1 3.1-3.3 8.265 8.265 0 0 1 4.43-1.207zm-.458 1.377a3.772 3.772 0 0 0-2.755 1.021 5.844 5.844 0 0 0-1.5 2.629 12.164 12.164 0 0 0-.458 3.357 12.46 12.46 0 0 0 .647 3.922 8.2 8.2 0 0 0 1.916 3.257 4.19 4.19 0 0 0 3.108 1.294 3.761 3.761 0 0 0 2.776-1.021 5.965 5.965 0 0 0 1.479-2.65 12.235 12.235 0 0 0 .458-3.336 12.015 12.015 0 0 0-.668-3.943 8.611 8.611 0 0 0-1.916-3.231 4.13 4.13 0 0 0-3.087-1.299z"/>
        <path data-name="패스 6" d="M130.884 5.548q0-.458-.018-1.1a2.819 2.819 0 0 0-.189-1.021 1.035 1.035 0 0 0-.9-.584 9.218 9.218 0 0 0-1.563-.126q-.04 0-.063-.521c-.012-.347.021-.536.1-.563a16.8 16.8 0 0 0 3-.6 21.941 21.941 0 0 0 2.752-1.024c.114 0 .216.078.314.23a.836.836 0 0 1 .147.44 14.467 14.467 0 0 0-.461 3.545v19.352c0 .614.006 1.183.021 1.71a4.593 4.593 0 0 0 .189 1.294c.054.141.258.264.6.374a5.387 5.387 0 0 0 1.126.231c.4.042.689.063.856.063a1.14 1.14 0 0 1 .144.584.755.755 0 0 1-.144.584q-1.253-.085-2.213-.147t-2.168-.063c-.779 0-1.482.021-2.1.063l-2.192.147a.754.754 0 0 1-.147-.584 1.106 1.106 0 0 1 .147-.584c.168 0 .443-.021.835-.063a5.813 5.813 0 0 0 1.126-.231c.359-.111.554-.234.584-.374a4.592 4.592 0 0 0 .189-1.294c.012-.527.018-1.1.018-1.71z"/>
        <path data-name="패스 7" d="M141.271 5.548c0-.305-.006-.674-.021-1.1a2.7 2.7 0 0 0-.189-1.021 1.03 1.03 0 0 0-.9-.584 9.218 9.218 0 0 0-1.563-.126c-.03 0-.048-.174-.063-.521s.021-.536.1-.563a16.8 16.8 0 0 0 3-.6 22.114 22.114 0 0 0 2.752-1.024c.111 0 .216.078.314.23a.831.831 0 0 1 .144.44 14.6 14.6 0 0 0-.458 3.545v19.352c0 .614.006 1.183.021 1.71a4.384 4.384 0 0 0 .189 1.294c.054.141.255.264.6.374a5.386 5.386 0 0 0 1.126.231c.4.042.689.063.853.063a1.106 1.106 0 0 1 .147.584.766.766 0 0 1-.147.584c-.832-.057-1.572-.1-2.21-.147s-1.362-.063-2.168-.063q-1.168 0-2.108.063l-2.189.147a.754.754 0 0 1-.147-.584 1.106 1.106 0 0 1 .147-.584q.247 0 .835-.063a5.813 5.813 0 0 0 1.126-.231c.359-.111.554-.234.581-.374a4.385 4.385 0 0 0 .189-1.294c.015-.527.021-1.1.021-1.71z"/>
        <path data-name="패스 8" d="M152.532 18.187a8.975 8.975 0 0 0 .874 4.339 6.17 6.17 0 0 0 2.461 2.608 6.8 6.8 0 0 0 3.339.853 5.135 5.135 0 0 0 2.045-.4 6.368 6.368 0 0 0 1.542-.919 7.76 7.76 0 0 0 .874-.811c.027 0 .09.048.189.147a.536.536 0 0 1 .147.4 1.5 1.5 0 0 1-.249.749 9.328 9.328 0 0 1-1.171 1.4 7.717 7.717 0 0 1-2 1.44 6 6 0 0 1-2.794.626 7.837 7.837 0 0 1-7.09-4.171 8.858 8.858 0 0 1-1.042-4.3 9.908 9.908 0 0 1 .731-3.818 10.575 10.575 0 0 1 1.916-3.087 9.559 9.559 0 0 1 2.603-2.065 5.877 5.877 0 0 1 2.752-.752 6.488 6.488 0 0 1 3.027.626 5.525 5.525 0 0 1 1.874 1.542 5.929 5.929 0 0 1 .961 1.835 5.692 5.692 0 0 1 .27 1.545 3.62 3.62 0 0 1-.21 1.374.849.849 0 0 1-.79.545c-.251.027-.746.048-1.479.063s-1.581.033-2.524.063l-2.8.081c-.916.03-1.695.048-2.335.063s-1.01.024-1.121.024zm.21-1.5h6.632a1.013 1.013 0 0 0 .644-.21.988.988 0 0 0 .314-.751 3.608 3.608 0 0 0-.293-1.416 4.68 4.68 0 0 0-1.063-1.668 2.622 2.622 0 0 0-1.979-.752 3.124 3.124 0 0 0-2.129.728 5.633 5.633 0 0 0-1.314 1.668 8.093 8.093 0 0 0-.665 1.671 2.565 2.565 0 0 0-.147.73z"/>
        <path data-name="패스 9" d="M181.061 12.555a1.943 1.943 0 0 1-.5 1.524 1.557 1.557 0 0 1-1.042.437 1.741 1.741 0 0 1-1.252-.584 6.207 6.207 0 0 0-1.126-.916 6.045 6.045 0 0 0-1.084-.626 3.416 3.416 0 0 0-1.21-.168 3.525 3.525 0 0 0-2.15.814 5.994 5.994 0 0 0-1.752 2.315 8.789 8.789 0 0 0-.689 3.671q0 3.544 1.922 5.213a6.856 6.856 0 0 0 4.671 1.668 4.724 4.724 0 0 0 2.815-.791 10.441 10.441 0 0 0 1.521-1.252c.03 0 .09.048.189.147a.524.524 0 0 1 .147.4 1.479 1.479 0 0 1-.252.749 9.28 9.28 0 0 1-1.168 1.4 7.75 7.75 0 0 1-2 1.44 6.023 6.023 0 0 1-2.8.626 7.9 7.9 0 0 1-4.315-1.171 8.132 8.132 0 0 1-2.88-3.042 8.269 8.269 0 0 1-1.021-4.006 8.719 8.719 0 0 1 .937-4.066 11.18 11.18 0 0 1 5.632-5.192 8.724 8.724 0 0 1 3.318-.71 6.24 6.24 0 0 1 3.668 1 1.591 1.591 0 0 1 .272.461 1.663 1.663 0 0 1 .149.659z"/>
        <path data-name="패스 10" d="M189.239 10.68h5.253q.207 0 .207.458a1.706 1.706 0 0 1-.584 1.21h-4.878v10.678q0 3.337 2.71 3.339a3.661 3.661 0 0 0 1.668-.377 6.43 6.43 0 0 0 .958-.542q.126.04.126.252a.883.883 0 0 1-.165.623 11.239 11.239 0 0 1-.9.877 6.427 6.427 0 0 1-1.437.958 4.053 4.053 0 0 1-1.835.419 5.577 5.577 0 0 1-2.024-.377 3.286 3.286 0 0 1-1.6-1.332 4.969 4.969 0 0 1-.626-2.713v-11.8h-2.377c-.057 0-.1-.048-.126-.147a.927.927 0 0 1-.042-.228 1.094 1.094 0 0 1 .252-.4c.165-.21.428-.506.79-.9h1.5V8.133q.418-.458.979-1.063t1.021-1.126q.458-.521.5-.566a.545.545 0 0 1 .4-.165c.153 0 .231.042.231.126z"/>
        <path data-name="패스 11" d="M202.752 23.568c0 .614.006 1.183.021 1.71a4.5 4.5 0 0 0 .186 1.294c.057.141.257.264.6.374a5.421 5.421 0 0 0 1.108.231c.386.042.665.063.832.063a1.106 1.106 0 0 1 .147.584.754.754 0 0 1-.147.584q-1.249-.085-2.189-.147t-2.147-.063c-.781 0-1.488.021-2.129.063s-1.377.09-2.21.147a.742.742 0 0 1-.147-.584 1.078 1.078 0 0 1 .147-.584c.168 0 .449-.021.853-.063a5.762 5.762 0 0 0 1.147-.231c.362-.111.557-.234.584-.374a4.591 4.591 0 0 0 .189-1.294c.015-.527.021-1.1.021-1.71v-7.59c0-.278-.006-.638-.021-1.084a2.9 2.9 0 0 0-.189-1.045.9.9 0 0 0-.71-.521 5.759 5.759 0 0 0-1.165-.168 32.962 32.962 0 0 0-.752-.018 1.981 1.981 0 0 1-.084-.5.874.874 0 0 1 .084-.587 21.824 21.824 0 0 0 3.087-.626 12.326 12.326 0 0 0 2.71-1.084q.166 0 .314.252a.892.892 0 0 1 .144.416c0 .084-.027.32-.084.71s-.1.778-.147 1.168-.06.653-.06.794zm-3.925-19.436a2.071 2.071 0 1 1 .608 1.437 1.968 1.968 0 0 1-.608-1.437z"/>
        <path data-name="패스 12" d="M210.509 10.971q1.168 0 2.024-.084t2.063-.123a1.446 1.446 0 0 1 .042.665c-.03.335-.1.5-.21.5-.081 0-.29.012-.626.042a4.061 4.061 0 0 0-.937.186c-.293.1-.44.258-.44.482a.342.342 0 0 0 .045.165l4.461 11.013q.665-1.792 1.231-3.192t1.19-3.024q.624-1.626 1.21-3.045a2.609 2.609 0 0 0 .21-.728 5.332 5.332 0 0 0 .042-.566 1.086 1.086 0 0 0-.668-.979 3.636 3.636 0 0 0-1.713-.353c-.111 0-.165-.168-.165-.5a.963.963 0 0 1 .165-.665 15.07 15.07 0 0 1 1.5.123 13.092 13.092 0 0 0 1.794.084 16.455 16.455 0 0 0 1.877-.084q.71-.081 1.916-.123a.973.973 0 0 1 .063.665c-.039.335-.1.5-.186.5a3.985 3.985 0 0 0-.689.123 4.585 4.585 0 0 0-1.063.416 1.76 1.76 0 0 0-.793.877q-.916 2.169-1.647 3.922t-1.419 3.4q-.687 1.648-1.44 3.419t-1.626 3.943a.993.993 0 0 1-.458.479 1.27 1.27 0 0 1-.584.23c-.195 0-.32-.057-.374-.168q-1.963-4.711-3.443-8.552t-3.189-7.258a1.257 1.257 0 0 0-1.045-.728 9.124 9.124 0 0 0-1.126-.1h-.081a3.931 3.931 0 0 1-.084-.521 1.22 1.22 0 0 1 .084-.647q1.249.041 2.042.123a19.835 19.835 0 0 0 2.047.083z"/>
        <path data-name="패스 13" d="M229.529 18.187a8.975 8.975 0 0 0 .874 4.339 6.152 6.152 0 0 0 2.461 2.608 6.789 6.789 0 0 0 3.339.853 5.11 5.11 0 0 0 2.042-.4 6.391 6.391 0 0 0 1.545-.919 8.037 8.037 0 0 0 .874-.811c.027 0 .09.048.189.147a.536.536 0 0 1 .147.4 1.479 1.479 0 0 1-.252.749 9.281 9.281 0 0 1-1.168 1.4 7.768 7.768 0 0 1-2 1.44 6 6 0 0 1-2.794.626 7.837 7.837 0 0 1-7.09-4.171 8.859 8.859 0 0 1-1.042-4.3 9.908 9.908 0 0 1 .731-3.818 10.575 10.575 0 0 1 1.916-3.087 9.559 9.559 0 0 1 2.608-2.063 5.876 5.876 0 0 1 2.752-.752 6.466 6.466 0 0 1 3.024.626 5.508 5.508 0 0 1 1.877 1.542 5.929 5.929 0 0 1 .961 1.835 5.693 5.693 0 0 1 .269 1.545 3.62 3.62 0 0 1-.21 1.374.852.852 0 0 1-.79.545q-.377.041-1.482.063t-2.521.063l-2.8.081c-.919.03-1.695.048-2.335.063s-1.014.022-1.125.022zm.21-1.5h6.629a1.016 1.016 0 0 0 .647-.21.988.988 0 0 0 .314-.751 3.665 3.665 0 0 0-.293-1.416 4.68 4.68 0 0 0-1.063-1.668 2.622 2.622 0 0 0-1.979-.752 3.119 3.119 0 0 0-2.129.728 5.634 5.634 0 0 0-1.314 1.668 8.3 8.3 0 0 0-.668 1.671 2.343 2.343 0 0 0-.144.73z"/>
    </g>
</svg>
